<?xml version="1.0" encoding="UTF-8" standalone="no"?>
<!DOCTYPE svg PUBLIC "-//W3C//DTD SVG 1.1//EN" "http://www.w3.org/Graphics/SVG/1.1/DTD/svg11.dtd">
<svg xmlns="http://www.w3.org/2000/svg" version="1.1" viewBox="0 0 1136 1130" style="background-color:#1e2120">
<g stroke-width="2.00" fill="none" stroke-linecap="butt">
<path stroke="#8e9090" vector-effect="non-scaling-stroke" d="
  M 286.94 290.75
  L 827.06 290.75
  A 0.69 0.50 0.0 0 1 827.75 291.25
  L 827.75 666.25
  A 0.61 0.44 90.0 0 0 828.19 666.86
  L 836.00 666.77
  A 0.52 0.51 89.4 0 0 836.50 666.25
  L 836.50 282.50
  A 0.50 0.50 0.0 0 0 836.00 282.00
  L 278.50 282.00
  A 0.50 0.50 0.0 0 0 278.00 282.50
  L 278.00 666.25
  A 0.55 0.54 -0.5 0 0 278.56 666.79
  L 286.00 666.76
  A 0.51 0.50 -90.0 0 0 286.50 666.25
  L 286.50 291.25
  A 0.50 0.44 90.0 0 1 286.94 290.75"
/>
<path stroke="#8e9090" vector-effect="non-scaling-stroke" d="
  M 465.91 382.55
  A 0.57 0.57 0.0 0 0 465.34 381.98
  L 436.32 381.98
  A 0.57 0.57 0.0 0 0 435.75 382.55
  L 435.75 591.43
  A 0.57 0.57 0.0 0 0 436.32 592.00
  L 465.34 592.00
  A 0.57 0.57 0.0 0 0 465.91 591.43
  L 465.91 382.55"
/>
<path stroke="#8e9090" vector-effect="non-scaling-stroke" d="
  M 554.06 425.14
  Q 554.06 424.32 554.45 425.05
  L 642.78 591.48
  A 0.98 0.70 71.5 0 0 643.50 592.00
  L 678.75 592.00
  A 0.50 0.50 0.0 0 0 679.25 591.50
  L 679.25 382.50
  A 0.69 0.54 -0.0 0 0 678.56 381.96
  L 650.25 381.99
  A 0.51 0.50 -90.0 0 0 649.75 382.50
  L 649.75 548.25
  Q 649.75 549.22 649.24 548.26
  L 560.69 382.53
  A 0.99 0.62 69.6 0 0 560.00 382.00
  L 525.31 381.99
  A 0.54 0.39 0.5 0 0 524.77 382.37
  C 524.66 452.06 524.73 521.75 524.76 591.44
  A 0.56 0.49 90.0 0 0 525.25 592.00
  L 553.50 592.00
  A 0.62 0.53 -90.0 0 0 554.03 591.38
  C 554.62 536.00 554.32 480.52 554.06 425.14"
/>
<path stroke="#8e9090" vector-effect="non-scaling-stroke" d="
  M 472.95 695.79
  C 482.69 703.01 497.73 700.19 500.71 687.16
  A 0.54 0.49 -82.9 0 0 500.25 686.50
  L 494.25 686.50
  A 0.82 0.72 -81.8 0 0 493.53 687.11
  Q 492.16 692.53 487.00 693.52
  C 471.03 696.59 468.03 672.24 478.74 666.28
  C 483.74 663.50 491.42 664.76 493.52 670.88
  A 0.91 0.71 78.5 0 0 494.25 671.50
  L 500.25 671.50
  A 0.56 0.48 82.5 0 0 500.70 670.81
  Q 498.67 662.16 490.52 659.98
  C 477.72 656.55 467.32 663.56 466.02 676.37
  C 465.32 683.26 466.96 691.35 472.95 695.79"
/>
<path stroke="#8e9090" vector-effect="non-scaling-stroke" d="
  M 660.94 695.56
  C 668.16 701.12 678.81 700.93 685.49 694.87
  C 691.37 689.56 692.80 679.22 690.49 671.99
  Q 686.26 658.74 671.76 659.19
  C 653.10 659.76 648.31 685.83 660.94 695.56"
/>
<path stroke="#8e9090" vector-effect="non-scaling-stroke" d="
  M 406.50 660.06
  A 0.31 0.31 0.0 0 0 406.19 659.75
  L 400.31 659.75
  A 0.31 0.31 0.0 0 0 400.00 660.06
  L 400.00 698.68
  A 0.31 0.31 0.0 0 0 400.31 698.99
  L 406.19 698.99
  A 0.31 0.31 0.0 0 0 406.50 698.68
  L 406.50 660.06"
/>
<path stroke="#8e9090" vector-effect="non-scaling-stroke" d="
  M 428.22 669.54
  L 444.09 698.42
  A 1.15 0.98 72.9 0 0 445.00 699.00
  L 451.75 699.00
  A 0.50 0.50 0.0 0 0 452.25 698.50
  L 452.25 660.25
  A 0.50 0.50 0.0 0 0 451.75 659.75
  L 446.25 659.75
  A 0.50 0.50 0.0 0 0 445.75 660.25
  L 445.75 689.00
  Q 445.75 690.09 445.17 689.04
  L 429.42 660.32
  A 1.01 0.52 67.7 0 0 428.75 659.75
  L 421.75 659.75
  A 0.50 0.50 0.0 0 0 421.25 660.25
  L 421.25 698.50
  A 0.50 0.50 0.0 0 0 421.75 699.00
  L 426.75 699.00
  A 1.00 1.00 0.0 0 0 427.75 698.00
  L 427.75 669.50
  Q 427.75 668.69 428.22 669.54"
/>
<path stroke="#8e9090" vector-effect="non-scaling-stroke" d="
  M 520.75 665.50
  L 539.00 665.50
  A 0.75 0.50 -0.0 0 0 539.75 665.00
  L 539.75 660.25
  A 0.75 0.50 0.0 0 0 539.00 659.75
  L 514.25 659.75
  A 0.50 0.50 0.0 0 0 513.75 660.25
  L 513.75 698.50
  A 0.50 0.50 0.0 0 0 514.25 699.00
  L 539.00 699.00
  A 0.75 0.50 -0.0 0 0 539.75 698.50
  L 539.75 693.75
  A 0.50 0.50 0.0 0 0 539.25 693.25
  L 521.25 693.25
  A 1.02 1.00 0.0 0 1 520.23 692.25
  L 520.13 682.56
  A 0.50 0.43 90.0 0 1 520.56 682.06
  L 536.75 682.11
  A 0.75 0.62 0.0 0 0 537.50 681.49
  L 537.50 677.00
  A 0.75 0.50 0.0 0 0 536.75 676.50
  L 520.75 676.50
  A 0.50 0.50 0.0 0 1 520.25 676.00
  L 520.25 666.00
  A 0.50 0.50 0.0 0 1 520.75 665.50"
/>
<path stroke="#8e9090" vector-effect="non-scaling-stroke" d="
  M 560.06 683.06
  C 565.29 683.03 572.14 683.71 576.63 680.75
  C 581.58 677.49 582.74 670.91 580.33 665.72
  C 576.43 657.35 560.92 659.69 553.52 659.80
  A 0.52 0.45 -0.0 0 0 553.00 660.25
  L 553.00 698.25
  A 0.75 0.50 90.0 0 0 553.50 699.00
  L 559.00 699.00
  A 0.75 0.50 -90.0 0 0 559.50 698.25
  L 559.50 683.50
  A 0.56 0.44 -0.0 0 1 560.06 683.06"
/>
<path stroke="#8e9090" vector-effect="non-scaling-stroke" d="
  M 603.50 666.00
  L 603.50 698.50
  A 0.50 0.50 0.0 0 0 604.00 699.00
  L 609.50 699.00
  A 0.50 0.50 0.0 0 0 610.00 698.50
  L 610.00 666.00
  A 0.50 0.50 0.0 0 1 610.50 665.50
  L 622.00 665.50
  A 0.50 0.50 0.0 0 0 622.50 665.00
  L 622.50 660.25
  A 0.50 0.50 0.0 0 0 622.00 659.75
  L 591.75 659.75
  A 0.50 0.50 0.0 0 0 591.25 660.25
  L 591.25 665.00
  A 0.50 0.50 0.0 0 0 591.75 665.50
  L 603.00 665.50
  A 0.50 0.50 0.0 0 1 603.50 666.00"
/>
<path stroke="#8e9090" vector-effect="non-scaling-stroke" d="
  M 640.74 660.05
  A 0.30 0.30 0.0 0 0 640.44 659.75
  L 634.54 659.75
  A 0.30 0.30 0.0 0 0 634.24 660.05
  L 634.24 698.69
  A 0.30 0.30 0.0 0 0 634.54 698.99
  L 640.44 698.99
  A 0.30 0.30 0.0 0 0 640.74 698.69
  L 640.74 660.05"
/>
<path stroke="#8e9090" vector-effect="non-scaling-stroke" d="
  M 711.96 669.52
  L 727.84 698.43
  A 1.02 0.49 66.4 0 0 728.50 699.00
  L 735.50 699.00
  A 0.50 0.50 0.0 0 0 736.00 698.50
  L 736.00 660.25
  A 0.50 0.50 0.0 0 0 735.50 659.75
  L 730.00 659.75
  A 0.50 0.50 0.0 0 0 729.50 660.25
  L 729.50 689.00
  Q 729.50 690.03 728.95 689.03
  L 713.18 660.32
  A 1.03 0.53 67.0 0 0 712.50 659.75
  L 705.50 659.75
  A 0.50 0.50 0.0 0 0 705.00 660.25
  L 705.00 698.25
  A 0.75 0.50 90.0 0 0 705.50 699.00
  L 711.00 699.00
  A 0.75 0.50 -90.0 0 0 711.50 698.25
  L 711.50 669.50
  Q 711.50 668.69 711.96 669.52"
/>
<path stroke="#8e9090" vector-effect="non-scaling-stroke" d="
  M 731.01 733.93
  A 0.43 0.43 0.0 0 0 730.58 733.50
  L 405.44 733.50
  A 0.43 0.43 0.0 0 0 405.01 733.93
  L 405.01 741.83
  A 0.43 0.43 0.0 0 0 405.44 742.26
  L 730.58 742.26
  A 0.43 0.43 0.0 0 0 731.01 741.83
  L 731.01 733.93"
/>
<path stroke="#8e9090" vector-effect="non-scaling-stroke" d="
  M 457.11 794.77
  C 463.08 797.85 470.67 797.95 475.62 801.97
  A 1.66 1.54 12.8 0 1 476.16 802.76
  Q 478.15 809.36 471.50 810.73
  Q 462.24 812.64 458.76 804.16
  A 1.04 0.70 74.7 0 0 458.00 803.50
  L 452.74 803.49
  A 0.64 0.54 83.9 0 0 452.23 804.24
  C 455.00 819.79 481.63 821.40 483.04 805.78
  C 484.54 789.04 457.87 796.22 460.06 785.69
  Q 460.61 783.03 463.50 782.24
  Q 471.83 779.95 475.44 787.31
  A 1.18 0.69 70.5 0 0 476.25 788.00
  L 481.50 788.01
  A 0.58 0.50 82.6 0 0 481.96 787.30
  C 477.70 768.74 445.81 775.60 454.77 792.46
  Q 455.58 793.98 457.11 794.77"
/>
<path stroke="#8e9090" vector-effect="non-scaling-stroke" d="
  M 653.44 812.81
  Q 662.16 819.13 672.07 815.32
  C 690.75 808.15 686.97 775.46 664.00 776.18
  Q 654.74 776.47 650.03 783.30
  C 644.47 791.36 644.93 806.65 653.44 812.81"
/>
<path stroke="#8e9090" vector-effect="non-scaling-stroke" d="
  M 512.75 782.50
  L 524.25 782.50
  A 0.50 0.50 0.0 0 0 524.75 782.00
  L 524.75 777.25
  A 0.50 0.50 0.0 0 0 524.25 776.75
  L 494.00 776.75
  A 0.50 0.50 0.0 0 0 493.50 777.25
  L 493.50 782.00
  A 0.50 0.50 0.0 0 0 494.00 782.50
  L 505.00 782.50
  A 0.75 0.75 0.0 0 1 505.75 783.25
  L 505.75 815.25
  A 0.75 0.50 90.0 0 0 506.25 816.00
  L 511.75 816.00
  A 0.50 0.50 0.0 0 0 512.25 815.50
  L 512.25 783.00
  A 0.50 0.50 0.0 0 1 512.75 782.50"
/>
<path stroke="#8e9090" vector-effect="non-scaling-stroke" d="
  M 537.08 808.24
  C 540.88 818.95 561.11 819.62 565.57 809.10
  Q 566.62 806.62 566.71 800.60
  Q 566.90 789.10 567.02 777.54
  A 0.78 0.52 -89.5 0 0 566.50 776.75
  L 561.00 776.74
  A 0.71 0.52 89.5 0 0 560.48 777.46
  Q 560.59 789.77 560.45 802.05
  C 560.40 806.87 558.01 809.92 553.13 810.64
  C 542.93 812.16 542.41 804.16 542.48 796.23
  Q 542.56 786.77 542.47 777.29
  A 0.55 0.47 89.4 0 0 542.00 776.75
  L 537.01 776.75
  A 0.73 0.67 0.4 0 0 536.28 777.41
  Q 536.19 789.79 536.29 801.50
  Q 536.33 806.12 537.08 808.24"
/>
<path stroke="#8e9090" vector-effect="non-scaling-stroke" d="
  M 612.65 798.76
  C 613.60 787.24 608.18 778.16 596.04 776.92
  C 592.68 776.57 586.45 776.67 581.78 776.79
  A 0.54 0.46 -0.6 0 0 581.25 777.25
  L 581.25 815.50
  A 0.56 0.45 2.0 0 0 581.78 815.96
  C 595.24 816.49 611.19 816.58 612.65 798.76"
/>
<path stroke="#8e9090" vector-effect="non-scaling-stroke" d="
  M 632.6764 777.1244
  A 0.38 0.38 0.0 0 0 632.2958 776.7451
  L 626.5958 776.7550
  A 0.38 0.38 0.0 0 0 626.2164 777.1357
  L 626.2836 815.6156
  A 0.38 0.38 0.0 0 0 626.6642 815.9949
  L 632.3642 815.9850
  A 0.38 0.38 0.0 0 0 632.7436 815.6043
  L 632.6764 777.1244"
/>
<path stroke="#8e9090" vector-effect="non-scaling-stroke" d="
  M 672.8254 693.9200
  A 14.58 12.14 89.9 0 0 684.9400 679.3188
  A 14.58 12.14 89.9 0 0 672.7746 664.7600
  A 14.58 12.14 89.9 0 0 660.6600 679.3612
  A 14.58 12.14 89.9 0 0 672.8254 693.9200"
/>
<path stroke="#8e9090" vector-effect="non-scaling-stroke" d="
  M 572.88 666.98
  C 569.80 665.03 563.67 665.31 560.10 665.60
  A 0.65 0.65 -2.4 0 0 559.50 666.25
  L 559.50 676.75
  A 0.59 0.45 1.9 0 0 560.06 677.21
  C 565.21 677.50 576.73 678.71 574.74 669.63
  Q 574.36 667.92 572.88 666.98"
/>
<path stroke="#8e9090" vector-effect="non-scaling-stroke" d="
  M 665.0500 810.8800
  A 14.57 12.12 90.0 0 0 677.1700 796.3100
  A 14.57 12.12 90.0 0 0 665.0500 781.7400
  A 14.57 12.12 90.0 0 0 652.9300 796.3100
  A 14.57 12.12 90.0 0 0 665.0500 810.8800"
/>
<path stroke="#8e9090" vector-effect="non-scaling-stroke" d="
  M 601.78 785.46
  Q 599.07 783.23 596.92 783.09
  L 588.25 782.50
  A 0.50 0.47 -88.4 0 0 587.75 783.00
  L 587.75 809.50
  A 0.55 0.47 1.9 0 0 588.27 809.97
  C 595.72 810.39 603.04 809.69 605.34 802.15
  C 607.05 796.55 606.70 789.49 601.78 785.46"
/>
</g>
<g fill="#ffffff">
<path d="
  M 286.50 291.25
  L 286.50 666.25
  A 0.51 0.50 -90.0 0 1 286.00 666.76
  L 278.56 666.79
  A 0.55 0.54 -0.5 0 1 278.00 666.25
  L 278.00 282.50
  A 0.50 0.50 0.0 0 1 278.50 282.00
  L 836.00 282.00
  A 0.50 0.50 0.0 0 1 836.50 282.50
  L 836.50 666.25
  A 0.52 0.51 89.4 0 1 836.00 666.77
  L 828.19 666.86
  A 0.61 0.44 90.0 0 1 827.75 666.25
  L 827.75 291.25
  A 0.69 0.50 0.0 0 0 827.06 290.75
  L 286.94 290.75
  A 0.50 0.44 -90.0 0 0 286.50 291.25
  Z"
/>
<rect x="435.75" y="381.98" width="30.16" height="210.02" rx="0.57"/>
<path d="
  M 554.06 425.14
  C 554.32 480.52 554.62 536.00 554.03 591.38
  A 0.62 0.53 -90.0 0 1 553.50 592.00
  L 525.25 592.00
  A 0.56 0.49 90.0 0 1 524.76 591.44
  C 524.73 521.75 524.66 452.06 524.77 382.37
  A 0.54 0.39 0.5 0 1 525.31 381.99
  L 560.00 382.00
  A 0.99 0.62 69.6 0 1 560.69 382.53
  L 649.24 548.26
  Q 649.75 549.22 649.75 548.25
  L 649.75 382.50
  A 0.51 0.50 -90.0 0 1 650.25 381.99
  L 678.56 381.96
  A 0.69 0.54 0.0 0 1 679.25 382.50
  L 679.25 591.50
  A 0.50 0.50 0.0 0 1 678.75 592.00
  L 643.50 592.00
  A 0.98 0.70 71.5 0 1 642.78 591.48
  L 554.45 425.05
  Q 554.06 424.32 554.06 425.14
  Z"
/>
<path d="
  M 472.95 695.79
  C 466.96 691.35 465.32 683.26 466.02 676.37
  C 467.32 663.56 477.72 656.55 490.52 659.98
  Q 498.67 662.16 500.70 670.81
  A 0.56 0.48 82.5 0 1 500.25 671.50
  L 494.25 671.50
  A 0.91 0.71 78.5 0 1 493.52 670.88
  C 491.42 664.76 483.74 663.50 478.74 666.28
  C 468.03 672.24 471.03 696.59 487.00 693.52
  Q 492.16 692.53 493.53 687.11
  A 0.82 0.72 -81.8 0 1 494.25 686.50
  L 500.25 686.50
  A 0.54 0.49 -82.9 0 1 500.71 687.16
  C 497.73 700.19 482.69 703.01 472.95 695.79
  Z"
/>
<path d="
  M 660.94 695.56
  C 648.31 685.83 653.10 659.76 671.76 659.19
  Q 686.26 658.74 690.49 671.99
  C 692.80 679.22 691.37 689.56 685.49 694.87
  C 678.81 700.93 668.16 701.12 660.94 695.56
  Z
  M 672.8254 693.9200
  A 14.58 12.14 89.9 0 0 684.9400 679.3188
  A 14.58 12.14 89.9 0 0 672.7746 664.7600
  A 14.58 12.14 89.9 0 0 660.6600 679.3612
  A 14.58 12.14 89.9 0 0 672.8254 693.9200
  Z"
/>
<rect x="400.00" y="659.75" width="6.50" height="39.24" rx="0.31"/>
<path d="
  M 427.75 669.50
  L 427.75 698.00
  A 1.00 1.00 0.0 0 1 426.75 699.00
  L 421.75 699.00
  A 0.50 0.50 0.0 0 1 421.25 698.50
  L 421.25 660.25
  A 0.50 0.50 0.0 0 1 421.75 659.75
  L 428.75 659.75
  A 1.01 0.52 67.7 0 1 429.42 660.32
  L 445.17 689.04
  Q 445.75 690.09 445.75 689.00
  L 445.75 660.25
  A 0.50 0.50 0.0 0 1 446.25 659.75
  L 451.75 659.75
  A 0.50 0.50 0.0 0 1 452.25 660.25
  L 452.25 698.50
  A 0.50 0.50 0.0 0 1 451.75 699.00
  L 445.00 699.00
  A 1.15 0.98 72.9 0 1 444.09 698.42
  L 428.22 669.54
  Q 427.75 668.69 427.75 669.50
  Z"
/>
<path d="
  M 520.25 666.00
  L 520.25 676.00
  A 0.50 0.50 0.0 0 0 520.75 676.50
  L 536.75 676.50
  A 0.75 0.50 0.0 0 1 537.50 677.00
  L 537.50 681.49
  A 0.75 0.62 -0.0 0 1 536.75 682.11
  L 520.56 682.06
  A 0.50 0.43 -90.0 0 0 520.13 682.56
  L 520.23 692.25
  A 1.02 1.00 0.0 0 0 521.25 693.25
  L 539.25 693.25
  A 0.50 0.50 0.0 0 1 539.75 693.75
  L 539.75 698.50
  A 0.75 0.50 -0.0 0 1 539.00 699.00
  L 514.25 699.00
  A 0.50 0.50 0.0 0 1 513.75 698.50
  L 513.75 660.25
  A 0.50 0.50 0.0 0 1 514.25 659.75
  L 539.00 659.75
  A 0.75 0.50 0.0 0 1 539.75 660.25
  L 539.75 665.00
  A 0.75 0.50 -0.0 0 1 539.00 665.50
  L 520.75 665.50
  A 0.50 0.50 0.0 0 0 520.25 666.00
  Z"
/>
<path d="
  M 559.50 683.50
  L 559.50 698.25
  A 0.75 0.50 -90.0 0 1 559.00 699.00
  L 553.50 699.00
  A 0.75 0.50 90.0 0 1 553.00 698.25
  L 553.00 660.25
  A 0.52 0.45 0.0 0 1 553.52 659.80
  C 560.92 659.69 576.43 657.35 580.33 665.72
  C 582.74 670.91 581.58 677.49 576.63 680.75
  C 572.14 683.71 565.29 683.03 560.06 683.06
  A 0.56 0.44 -0.0 0 0 559.50 683.50
  Z
  M 572.88 666.98
  C 569.80 665.03 563.67 665.31 560.10 665.60
  A 0.65 0.65 -2.4 0 0 559.50 666.25
  L 559.50 676.75
  A 0.59 0.45 1.9 0 0 560.06 677.21
  C 565.21 677.50 576.73 678.71 574.74 669.63
  Q 574.36 667.92 572.88 666.98
  Z"
/>
<path d="
  M 603.00 665.50
  L 591.75 665.50
  A 0.50 0.50 0.0 0 1 591.25 665.00
  L 591.25 660.25
  A 0.50 0.50 0.0 0 1 591.75 659.75
  L 622.00 659.75
  A 0.50 0.50 0.0 0 1 622.50 660.25
  L 622.50 665.00
  A 0.50 0.50 0.0 0 1 622.00 665.50
  L 610.50 665.50
  A 0.50 0.50 0.0 0 0 610.00 666.00
  L 610.00 698.50
  A 0.50 0.50 0.0 0 1 609.50 699.00
  L 604.00 699.00
  A 0.50 0.50 0.0 0 1 603.50 698.50
  L 603.50 666.00
  A 0.50 0.50 0.0 0 0 603.00 665.50
  Z"
/>
<rect x="634.24" y="659.75" width="6.50" height="39.24" rx="0.30"/>
<path d="
  M 711.50 669.50
  L 711.50 698.25
  A 0.75 0.50 -90.0 0 1 711.00 699.00
  L 705.50 699.00
  A 0.75 0.50 90.0 0 1 705.00 698.25
  L 705.00 660.25
  A 0.50 0.50 0.0 0 1 705.50 659.75
  L 712.50 659.75
  A 1.03 0.53 67.0 0 1 713.18 660.32
  L 728.95 689.03
  Q 729.50 690.03 729.50 689.00
  L 729.50 660.25
  A 0.50 0.50 0.0 0 1 730.00 659.75
  L 735.50 659.75
  A 0.50 0.50 0.0 0 1 736.00 660.25
  L 736.00 698.50
  A 0.50 0.50 0.0 0 1 735.50 699.00
  L 728.50 699.00
  A 1.02 0.49 66.4 0 1 727.84 698.43
  L 711.96 669.52
  Q 711.50 668.69 711.50 669.50
  Z"
/>
<rect x="405.01" y="733.50" width="326.00" height="8.76" rx="0.43"/>
<path d="
  M 457.11 794.77
  Q 455.58 793.98 454.77 792.46
  C 445.81 775.60 477.70 768.74 481.96 787.30
  A 0.58 0.50 82.6 0 1 481.50 788.01
  L 476.25 788.00
  A 1.18 0.69 70.5 0 1 475.44 787.31
  Q 471.83 779.95 463.50 782.24
  Q 460.61 783.03 460.06 785.69
  C 457.87 796.22 484.54 789.04 483.04 805.78
  C 481.63 821.40 455.00 819.79 452.23 804.24
  A 0.64 0.54 83.9 0 1 452.74 803.49
  L 458.00 803.50
  A 1.04 0.70 74.7 0 1 458.76 804.16
  Q 462.24 812.64 471.50 810.73
  Q 478.15 809.36 476.16 802.76
  A 1.66 1.54 12.8 0 0 475.62 801.97
  C 470.67 797.95 463.08 797.85 457.11 794.77
  Z"
/>
<path d="
  M 653.44 812.81
  C 644.93 806.65 644.47 791.36 650.03 783.30
  Q 654.74 776.47 664.00 776.18
  C 686.97 775.46 690.75 808.15 672.07 815.32
  Q 662.16 819.13 653.44 812.81
  Z
  M 665.0500 810.8800
  A 14.57 12.12 90.0 0 0 677.1700 796.3100
  A 14.57 12.12 90.0 0 0 665.0500 781.7400
  A 14.57 12.12 90.0 0 0 652.9300 796.3100
  A 14.57 12.12 90.0 0 0 665.0500 810.8800
  Z"
/>
<path d="
  M 512.25 783.00
  L 512.25 815.50
  A 0.50 0.50 0.0 0 1 511.75 816.00
  L 506.25 816.00
  A 0.75 0.50 90.0 0 1 505.75 815.25
  L 505.75 783.25
  A 0.75 0.75 0.0 0 0 505.00 782.50
  L 494.00 782.50
  A 0.50 0.50 0.0 0 1 493.50 782.00
  L 493.50 777.25
  A 0.50 0.50 0.0 0 1 494.00 776.75
  L 524.25 776.75
  A 0.50 0.50 0.0 0 1 524.75 777.25
  L 524.75 782.00
  A 0.50 0.50 0.0 0 1 524.25 782.50
  L 512.75 782.50
  A 0.50 0.50 0.0 0 0 512.25 783.00
  Z"
/>
<path d="
  M 565.57 809.10
  C 561.11 819.62 540.88 818.95 537.08 808.24
  Q 536.33 806.12 536.29 801.50
  Q 536.19 789.79 536.28 777.41
  A 0.73 0.67 0.4 0 1 537.01 776.75
  L 542.00 776.75
  A 0.55 0.47 89.4 0 1 542.47 777.29
  Q 542.56 786.77 542.48 796.23
  C 542.41 804.16 542.93 812.16 553.13 810.64
  C 558.01 809.92 560.40 806.87 560.45 802.05
  Q 560.59 789.77 560.48 777.46
  A 0.71 0.52 89.5 0 1 561.00 776.74
  L 566.50 776.75
  A 0.78 0.52 -89.5 0 1 567.02 777.54
  Q 566.90 789.10 566.71 800.60
  Q 566.62 806.62 565.57 809.10
  Z"
/>
<path d="
  M 596.04 776.92
  C 608.18 778.16 613.60 787.24 612.65 798.76
  C 611.19 816.58 595.24 816.49 581.78 815.96
  A 0.56 0.45 2.0 0 1 581.25 815.50
  L 581.25 777.25
  A 0.54 0.46 -0.6 0 1 581.78 776.79
  C 586.45 776.67 592.68 776.57 596.04 776.92
  Z
  M 601.78 785.46
  Q 599.07 783.23 596.92 783.09
  L 588.25 782.50
  A 0.50 0.47 -88.4 0 0 587.75 783.00
  L 587.75 809.50
  A 0.55 0.47 1.9 0 0 588.27 809.97
  C 595.72 810.39 603.04 809.69 605.34 802.15
  C 607.05 796.55 606.70 789.49 601.78 785.46
  Z"
/>
<rect x="-3.23" y="-19.62" transform="translate(629.48,796.37) rotate(-0.1)" width="6.46" height="39.24" rx="0.38"/>
</g>
</svg>
