<svg xmlns="http://www.w3.org/2000/svg" xmlns:xlink="http://www.w3.org/1999/xlink" viewBox="0 0 118 28"><g transform="translate(36.262 0.13)"><path d="M 26.425 14.547 C 26.413 15.601 26.72 16.634 27.307 17.509 C 27.894 18.384 28.733 19.059 29.711 19.446 C 30.947 19.943 32.214 19.976 33.472 19.54 C 34.742 19.101 35.607 18.164 36.332 17.048 C 36.665 17.223 36.992 17.394 37.32 17.567 C 37.536 17.682 37.749 17.807 37.971 17.911 C 38.125 17.982 38.158 18.053 38.075 18.213 C 37.47 19.395 36.548 20.259 35.404 20.904 C 34.174 21.598 32.844 21.885 31.444 21.843 C 29.533 21.785 27.864 21.11 26.495 19.766 C 25.261 18.555 24.528 17.074 24.261 15.364 C 24.041 13.958 24.076 12.559 24.506 11.198 C 25.295 8.705 26.881 6.932 29.424 6.214 C 31.849 5.531 34.122 5.92 36.055 7.641 C 37.265 8.719 37.989 10.091 38.317 11.675 C 38.502 12.571 38.496 13.472 38.379 14.374 C 38.362 14.498 38.322 14.557 38.194 14.546 C 38.135 14.541 38.075 14.546 38.015 14.546 L 26.425 14.546 Z M 36.173 12.52 C 36.122 10.865 35.41 9.579 34.057 8.71 C 32.37 7.629 30.603 7.658 28.891 8.661 C 27.442 9.51 26.667 10.834 26.441 12.52 Z" fill="rgb(255, 255, 255)"></path><path d="M 81.731 10.922 C 81.752 12.805 81.517 14.649 80.823 16.415 C 80.17 18.077 79.204 19.509 77.729 20.553 C 76.621 21.337 75.383 21.743 74.031 21.827 C 72.779 21.905 71.566 21.753 70.411 21.246 C 68.942 20.601 67.82 19.552 66.96 18.21 C 66.033 16.765 65.512 15.17 65.266 13.478 C 65.034 11.89 65.017 10.278 65.218 8.685 C 65.475 6.626 66.106 4.701 67.371 3.029 C 68.435 1.623 69.793 0.609 71.533 0.229 C 74.085 -0.33 76.432 0.103 78.43 1.89 C 79.564 2.904 80.328 4.172 80.869 5.582 C 81.397 6.961 81.655 8.396 81.726 9.866 C 81.746 10.217 81.731 10.57 81.731 10.922 Z M 79.503 10.935 C 79.496 9.909 79.418 8.896 79.201 7.897 C 78.918 6.589 78.434 5.369 77.623 4.291 C 76.044 2.191 73.563 1.702 71.473 2.538 C 70.112 3.082 69.212 4.135 68.55 5.408 C 67.718 7.005 67.425 8.733 67.381 10.513 C 67.351 11.505 67.42 12.496 67.588 13.474 C 67.809 14.716 68.191 15.9 68.866 16.971 C 69.764 18.395 70.97 19.398 72.69 19.639 C 73.89 19.807 75.034 19.622 76.076 18.971 C 77.227 18.252 77.99 17.203 78.537 15.985 C 79.261 14.377 79.485 12.673 79.503 10.935 Z" fill="rgb(255, 255, 255)"></path><path d="M 21.667 11.448 C 21.662 9.814 21.021 8.443 19.812 7.362 C 18.334 6.04 16.592 5.629 14.676 6.061 C 13.272 6.377 12.145 7.137 11.407 8.41 C 11.346 8.516 11.287 8.623 11.216 8.748 C 11.174 8.685 11.148 8.649 11.124 8.61 C 10.774 8.023 10.318 7.506 9.78 7.087 C 9.762 7.072 9.743 7.057 9.722 7.041 C 9.602 6.951 9.478 6.865 9.351 6.783 C 8.333 6.116 7.432 5.901 6.458 5.901 C 5.925 5.888 5.391 5.942 4.871 6.063 C 3.595 6.351 2.545 7.006 1.81 8.082 L 1.339 6.22 L 0.005 6.22 L 0.005 6.393 C 0.001 6.42 0 6.446 0 6.473 C 0.008 7.851 0.004 9.229 0.004 10.606 C 0.004 14.154 0.003 17.702 0 21.249 C 0 21.435 0.053 21.489 0.235 21.485 C 0.779 21.474 1.324 21.481 1.869 21.481 C 2.151 21.481 2.151 21.481 2.151 21.196 C 2.151 18.287 2.152 15.378 2.154 12.47 C 2.153 12.157 2.171 11.845 2.208 11.535 C 2.427 9.772 3.701 8.138 5.804 8.068 C 5.984 8.062 6.164 8.066 6.344 8.081 C 6.383 8.084 6.421 8.087 6.459 8.092 C 7.492 8.206 8.345 8.694 8.989 9.61 C 9.566 10.432 9.757 11.367 9.759 12.35 C 9.765 15.312 9.765 18.274 9.759 21.235 C 9.759 21.427 9.814 21.488 10.006 21.484 C 10.551 21.473 11.095 21.481 11.641 21.48 C 11.907 21.48 11.907 21.48 11.907 21.204 C 11.907 18.295 11.903 15.387 11.912 12.478 C 11.915 12.093 11.949 11.708 12.014 11.328 C 12.312 9.534 13.669 8.125 15.608 8.064 C 16.762 8.027 17.747 8.403 18.512 9.288 C 19.233 10.123 19.517 11.12 19.519 12.203 C 19.526 15.199 19.522 18.195 19.522 21.19 C 19.522 21.482 19.522 21.482 19.82 21.482 L 21.394 21.482 C 21.673 21.482 21.673 21.482 21.673 21.195 C 21.67 17.945 21.678 14.697 21.667 11.448 Z" fill="rgb(255, 255, 255)"></path><path d="M 62.601 11.448 C 62.596 9.814 61.955 8.443 60.746 7.362 C 59.268 6.04 57.526 5.629 55.61 6.061 C 54.206 6.377 53.079 7.137 52.341 8.41 C 52.279 8.516 52.221 8.623 52.15 8.748 C 52.108 8.685 52.082 8.649 52.058 8.61 C 51.708 8.023 51.252 7.506 50.714 7.087 C 50.696 7.072 50.676 7.057 50.655 7.041 C 50.536 6.951 50.412 6.865 50.285 6.783 C 49.267 6.116 48.365 5.901 47.393 5.901 C 46.858 5.888 46.325 5.942 45.805 6.063 C 44.527 6.351 43.478 7.006 42.744 8.082 L 42.273 6.22 L 40.939 6.22 L 40.939 6.393 C 40.935 6.42 40.934 6.446 40.934 6.473 C 40.942 7.851 40.938 9.229 40.938 10.606 C 40.938 14.154 40.937 17.702 40.934 21.249 C 40.934 21.435 40.987 21.489 41.169 21.485 C 41.714 21.474 42.259 21.481 42.804 21.481 C 43.086 21.481 43.086 21.481 43.086 21.196 C 43.086 18.287 43.086 15.378 43.088 12.47 C 43.086 12.157 43.105 11.845 43.142 11.535 C 43.361 9.772 44.635 8.138 46.738 8.068 C 46.918 8.062 47.098 8.066 47.278 8.081 C 47.317 8.084 47.355 8.087 47.393 8.092 C 48.426 8.206 49.278 8.694 49.923 9.61 C 50.499 10.432 50.691 11.367 50.693 12.35 C 50.699 15.312 50.699 18.274 50.693 21.235 C 50.693 21.427 50.748 21.488 50.94 21.484 C 51.485 21.473 52.03 21.481 52.574 21.48 C 52.841 21.48 52.841 21.48 52.841 21.204 C 52.841 18.295 52.838 15.387 52.846 12.478 C 52.849 12.093 52.883 11.708 52.948 11.328 C 53.247 9.534 54.603 8.125 56.542 8.064 C 57.696 8.027 58.682 8.403 59.446 9.288 C 60.167 10.123 60.451 11.12 60.453 12.203 C 60.46 15.199 60.456 18.195 60.456 21.19 C 60.456 21.482 60.456 21.482 60.754 21.482 L 62.328 21.482 C 62.607 21.482 62.607 21.482 62.607 21.195 C 62.604 17.945 62.612 14.697 62.601 11.448 Z" fill="rgb(255, 255, 255)"></path><path d="M 73.442 12.197 C 74.163 12.197 74.748 11.611 74.748 10.888 C 74.748 10.165 74.163 9.579 73.442 9.579 C 72.72 9.579 72.135 10.165 72.135 10.888 C 72.135 11.611 72.72 12.197 73.442 12.197 Z" fill="rgb(255, 255, 255)"></path></g><path d="M 14.74 2.353 C 14.967 2.353 15.19 2.286 15.379 2.159 C 15.568 2.033 15.715 1.853 15.802 1.642 C 15.889 1.432 15.912 1.2 15.868 0.977 C 15.823 0.753 15.714 0.548 15.553 0.387 C 15.392 0.226 15.187 0.116 14.964 0.072 C 14.741 0.027 14.51 0.05 14.3 0.137 C 14.09 0.224 13.91 0.372 13.784 0.561 C 13.657 0.751 13.59 0.973 13.59 1.201 C 13.59 1.353 13.62 1.503 13.677 1.642 C 13.735 1.782 13.82 1.909 13.926 2.016 C 14.033 2.123 14.16 2.208 14.3 2.266 C 14.439 2.324 14.589 2.353 14.74 2.353 Z" fill="rgb(255, 255, 255)"></path><path d="M 6.289 5.189 C 6.45 5.028 6.559 4.823 6.603 4.599 C 6.648 4.376 6.625 4.144 6.538 3.934 C 6.451 3.723 6.303 3.543 6.114 3.417 C 5.925 3.29 5.703 3.223 5.476 3.223 C 5.248 3.223 5.026 3.29 4.837 3.417 C 4.648 3.543 4.5 3.723 4.413 3.934 C 4.326 4.144 4.304 4.376 4.348 4.599 C 4.392 4.823 4.502 5.028 4.663 5.189 C 4.769 5.296 4.896 5.381 5.036 5.439 C 5.175 5.497 5.325 5.527 5.476 5.527 C 5.627 5.527 5.776 5.497 5.916 5.439 C 6.055 5.381 6.182 5.296 6.289 5.189 Z" fill="rgb(255, 255, 255)"></path><path d="M 2.3 13.182 C 2.3 12.955 2.232 12.732 2.106 12.542 C 1.979 12.353 1.8 12.205 1.59 12.118 C 1.38 12.031 1.149 12.008 0.925 12.053 C 0.702 12.097 0.498 12.207 0.337 12.368 C 0.176 12.529 0.066 12.734 0.022 12.958 C -0.022 13.181 0 13.413 0.088 13.623 C 0.175 13.834 0.322 14.014 0.511 14.14 C 0.7 14.267 0.922 14.334 1.15 14.334 C 1.455 14.334 1.747 14.213 1.963 13.997 C 2.178 13.781 2.3 13.488 2.3 13.182 Z" fill="rgb(255, 255, 255)"></path><path d="M 5.13 21.656 C 4.969 21.495 4.764 21.386 4.541 21.341 C 4.318 21.297 4.087 21.32 3.877 21.407 C 3.667 21.494 3.488 21.642 3.361 21.831 C 3.235 22.02 3.167 22.243 3.167 22.471 C 3.167 22.699 3.235 22.922 3.361 23.111 C 3.488 23.3 3.667 23.448 3.877 23.535 C 4.087 23.622 4.318 23.645 4.541 23.601 C 4.764 23.556 4.969 23.447 5.13 23.286 C 5.237 23.179 5.322 23.052 5.379 22.912 C 5.437 22.772 5.467 22.622 5.467 22.471 C 5.467 22.32 5.437 22.17 5.379 22.03 C 5.322 21.89 5.237 21.763 5.13 21.656 Z" fill="rgb(255, 255, 255)"></path><path d="M 13.107 25.646 C 12.879 25.646 12.657 25.714 12.468 25.84 C 12.279 25.967 12.132 26.147 12.045 26.357 C 11.958 26.568 11.935 26.799 11.979 27.023 C 12.024 27.246 12.133 27.452 12.294 27.613 C 12.455 27.774 12.66 27.883 12.883 27.928 C 13.106 27.972 13.337 27.95 13.547 27.862 C 13.757 27.775 13.937 27.628 14.063 27.438 C 14.189 27.249 14.257 27.026 14.257 26.798 C 14.256 26.493 14.135 26.2 13.919 25.984 C 13.704 25.768 13.412 25.647 13.107 25.646 Z" fill="rgb(255, 255, 255)"></path><path d="M 21.567 22.815 C 21.406 22.976 21.297 23.181 21.252 23.405 C 21.208 23.628 21.231 23.86 21.318 24.07 C 21.405 24.281 21.552 24.461 21.741 24.587 C 21.931 24.714 22.153 24.781 22.38 24.781 C 22.608 24.781 22.83 24.714 23.019 24.587 C 23.208 24.461 23.355 24.281 23.442 24.07 C 23.53 23.86 23.552 23.628 23.508 23.405 C 23.464 23.181 23.354 22.976 23.193 22.815 C 23.087 22.708 22.96 22.623 22.82 22.565 C 22.681 22.507 22.531 22.477 22.38 22.477 C 22.229 22.477 22.08 22.507 21.94 22.565 C 21.801 22.623 21.674 22.708 21.567 22.815 Z" fill="rgb(255, 255, 255)"></path><path d="M 25.549 14.819 C 25.549 15.047 25.616 15.27 25.742 15.459 C 25.869 15.649 26.048 15.796 26.258 15.884 C 26.469 15.971 26.7 15.994 26.923 15.949 C 27.146 15.905 27.351 15.795 27.511 15.634 C 27.672 15.473 27.782 15.267 27.826 15.044 C 27.871 14.821 27.848 14.589 27.761 14.378 C 27.674 14.168 27.526 13.988 27.337 13.861 C 27.148 13.735 26.926 13.667 26.698 13.667 C 26.393 13.667 26.101 13.789 25.885 14.005 C 25.67 14.221 25.549 14.514 25.549 14.819 Z" fill="rgb(255, 255, 255)"></path><path d="M 22.721 6.35 C 22.882 6.511 23.087 6.621 23.31 6.665 C 23.533 6.71 23.764 6.687 23.974 6.6 C 24.184 6.512 24.364 6.365 24.49 6.175 C 24.616 5.986 24.684 5.763 24.684 5.535 C 24.684 5.307 24.616 5.085 24.49 4.895 C 24.364 4.706 24.184 4.558 23.974 4.471 C 23.764 4.384 23.533 4.361 23.31 4.405 C 23.087 4.45 22.882 4.56 22.721 4.721 C 22.614 4.828 22.53 4.955 22.472 5.094 C 22.414 5.234 22.384 5.384 22.384 5.535 C 22.384 5.687 22.414 5.836 22.472 5.976 C 22.53 6.116 22.614 6.243 22.721 6.35 Z" fill="rgb(255, 255, 255)"></path><path d="M 16.761 5.575 C 16.343 5.817 16.173 6.324 16.112 6.804 C 16.06 7.223 15.877 7.615 15.59 7.924 C 15.303 8.233 14.927 8.444 14.513 8.528 C 14.1 8.611 13.672 8.563 13.287 8.389 C 12.903 8.216 12.583 7.925 12.373 7.56 C 12.162 7.194 12.071 6.771 12.113 6.351 C 12.154 5.931 12.327 5.535 12.605 5.218 C 12.884 4.901 13.255 4.68 13.665 4.586 C 14.076 4.491 14.506 4.528 14.895 4.692 C 15.341 4.879 15.863 4.982 16.283 4.742 C 16.703 4.503 16.871 3.994 16.932 3.514 C 16.985 3.095 17.167 2.703 17.454 2.393 C 17.741 2.084 18.117 1.872 18.53 1.788 C 18.943 1.705 19.372 1.753 19.757 1.927 C 20.141 2.1 20.461 2.39 20.672 2.756 C 20.883 3.122 20.974 3.544 20.932 3.964 C 20.891 4.385 20.718 4.781 20.44 5.098 C 20.161 5.415 19.79 5.636 19.379 5.731 C 18.969 5.825 18.539 5.788 18.15 5.625 C 17.704 5.439 17.181 5.334 16.761 5.575 Z" fill="rgb(255, 255, 255)"></path><path d="M 9.984 6.031 C 9.86 6.5 10.097 6.979 10.393 7.362 C 10.651 7.695 10.798 8.101 10.813 8.523 C 10.828 8.944 10.711 9.36 10.478 9.711 C 10.245 10.063 9.907 10.332 9.513 10.481 C 9.12 10.63 8.689 10.652 8.282 10.542 C 7.876 10.433 7.513 10.199 7.246 9.873 C 6.98 9.546 6.822 9.144 6.795 8.723 C 6.769 8.302 6.875 7.883 7.098 7.526 C 7.322 7.169 7.651 6.89 8.041 6.731 C 8.489 6.546 8.935 6.252 9.055 5.783 C 9.175 5.315 8.942 4.836 8.646 4.453 C 8.389 4.119 8.242 3.713 8.227 3.291 C 8.212 2.87 8.33 2.454 8.563 2.103 C 8.796 1.752 9.134 1.483 9.528 1.334 C 9.922 1.185 10.352 1.164 10.759 1.274 C 11.166 1.383 11.528 1.617 11.794 1.944 C 12.061 2.27 12.218 2.672 12.245 3.093 C 12.271 3.514 12.165 3.933 11.942 4.29 C 11.718 4.648 11.388 4.926 10.998 5.085 C 10.555 5.268 10.11 5.564 9.984 6.031 Z" fill="rgb(255, 255, 255)"></path><path d="M 5.515 11.157 C 5.757 11.576 6.264 11.746 6.743 11.807 C 7.161 11.86 7.552 12.044 7.861 12.331 C 8.169 12.619 8.38 12.997 8.463 13.411 C 8.546 13.825 8.497 14.254 8.323 14.639 C 8.15 15.024 7.86 15.344 7.495 15.555 C 7.129 15.766 6.707 15.856 6.288 15.814 C 5.868 15.772 5.473 15.599 5.157 15.319 C 4.841 15.04 4.621 14.668 4.527 14.256 C 4.433 13.844 4.471 13.413 4.635 13.024 C 4.822 12.578 4.924 12.054 4.685 11.633 C 4.446 11.212 3.938 11.044 3.457 10.983 C 3.039 10.93 2.648 10.746 2.34 10.459 C 2.031 10.171 1.821 9.794 1.738 9.38 C 1.655 8.966 1.703 8.536 1.877 8.151 C 2.051 7.766 2.341 7.446 2.706 7.235 C 3.071 7.024 3.493 6.934 3.913 6.976 C 4.332 7.018 4.728 7.191 5.044 7.471 C 5.359 7.751 5.58 8.122 5.674 8.534 C 5.767 8.946 5.73 9.377 5.566 9.766 C 5.379 10.213 5.276 10.736 5.515 11.157 Z" fill="rgb(255, 255, 255)"></path><path d="M 5.971 17.947 C 6.439 18.072 6.915 17.834 7.299 17.538 C 7.632 17.279 8.037 17.132 8.458 17.117 C 8.879 17.102 9.294 17.219 9.644 17.453 C 9.995 17.686 10.264 18.024 10.412 18.419 C 10.561 18.813 10.583 19.245 10.474 19.652 C 10.365 20.06 10.131 20.423 9.805 20.69 C 9.48 20.957 9.078 21.115 8.658 21.142 C 8.238 21.169 7.82 21.063 7.463 20.839 C 7.106 20.615 6.829 20.284 6.669 19.894 C 6.485 19.445 6.19 18.999 5.724 18.878 C 5.257 18.758 4.778 18.991 4.396 19.287 C 4.063 19.546 3.657 19.694 3.236 19.709 C 2.815 19.724 2.399 19.607 2.048 19.373 C 1.697 19.14 1.428 18.802 1.279 18.407 C 1.13 18.012 1.109 17.58 1.218 17.172 C 1.327 16.764 1.561 16.401 1.887 16.133 C 2.213 15.866 2.615 15.708 3.035 15.681 C 3.456 15.654 3.874 15.761 4.231 15.985 C 4.588 16.209 4.866 16.54 5.026 16.931 C 5.21 17.377 5.503 17.821 5.971 17.947 Z" fill="rgb(255, 255, 255)"></path><path d="M 11.084 22.426 C 11.502 22.184 11.672 21.676 11.734 21.196 C 11.787 20.777 11.97 20.386 12.257 20.077 C 12.544 19.768 12.921 19.558 13.334 19.475 C 13.747 19.392 14.175 19.441 14.559 19.615 C 14.942 19.789 15.262 20.079 15.472 20.444 C 15.682 20.81 15.773 21.232 15.731 21.652 C 15.688 22.072 15.516 22.468 15.237 22.784 C 14.958 23.1 14.588 23.321 14.177 23.415 C 13.767 23.509 13.337 23.472 12.949 23.308 C 12.501 23.121 11.979 23.018 11.56 23.257 C 11.142 23.497 10.971 24.006 10.91 24.487 C 10.857 24.906 10.673 25.297 10.386 25.605 C 10.099 25.914 9.723 26.125 9.31 26.208 C 8.897 26.29 8.469 26.241 8.086 26.068 C 7.702 25.894 7.383 25.604 7.172 25.238 C 6.962 24.873 6.872 24.45 6.913 24.031 C 6.955 23.611 7.128 23.215 7.406 22.899 C 7.685 22.582 8.055 22.362 8.466 22.267 C 8.876 22.173 9.305 22.21 9.694 22.374 C 10.142 22.561 10.665 22.668 11.084 22.426 Z" fill="rgb(255, 255, 255)"></path><path d="M 17.863 21.968 C 17.989 21.5 17.752 21.021 17.455 20.638 C 17.196 20.304 17.049 19.898 17.034 19.476 C 17.018 19.054 17.136 18.638 17.369 18.286 C 17.602 17.934 17.939 17.665 18.334 17.516 C 18.728 17.366 19.159 17.345 19.566 17.454 C 19.973 17.563 20.336 17.798 20.603 18.124 C 20.87 18.451 21.028 18.854 21.054 19.275 C 21.081 19.696 20.975 20.115 20.751 20.473 C 20.527 20.831 20.197 21.109 19.806 21.269 C 19.359 21.453 18.914 21.749 18.793 22.216 C 18.671 22.683 18.904 23.164 19.201 23.547 C 19.459 23.88 19.607 24.287 19.622 24.709 C 19.637 25.131 19.52 25.547 19.287 25.899 C 19.054 26.25 18.716 26.52 18.322 26.669 C 17.928 26.818 17.497 26.84 17.09 26.731 C 16.683 26.621 16.32 26.387 16.053 26.06 C 15.786 25.733 15.628 25.331 15.602 24.91 C 15.575 24.488 15.681 24.069 15.905 23.711 C 16.129 23.354 16.459 23.075 16.849 22.916 C 17.295 22.731 17.739 22.437 17.863 21.968 Z" fill="rgb(255, 255, 255)"></path><path d="M 22.332 16.844 C 22.09 16.425 21.585 16.255 21.105 16.193 C 20.688 16.14 20.297 15.957 19.989 15.669 C 19.681 15.382 19.47 15.005 19.387 14.592 C 19.304 14.178 19.352 13.749 19.525 13.364 C 19.699 12.98 19.988 12.66 20.353 12.449 C 20.717 12.238 21.139 12.147 21.558 12.188 C 21.977 12.23 22.372 12.403 22.688 12.681 C 23.004 12.96 23.225 13.331 23.319 13.742 C 23.413 14.153 23.377 14.584 23.214 14.973 C 23.027 15.421 22.924 15.945 23.162 16.364 C 23.399 16.783 23.91 16.955 24.39 17.016 C 24.807 17.069 25.198 17.252 25.506 17.54 C 25.814 17.827 26.025 18.204 26.108 18.618 C 26.191 19.031 26.142 19.46 25.968 19.845 C 25.795 20.229 25.505 20.549 25.141 20.76 C 24.776 20.971 24.355 21.062 23.936 21.02 C 23.517 20.978 23.121 20.805 22.805 20.526 C 22.49 20.247 22.269 19.876 22.175 19.465 C 22.081 19.054 22.118 18.623 22.281 18.234 C 22.468 17.787 22.574 17.264 22.332 16.844 Z" fill="rgb(255, 255, 255)"></path><path d="M 21.878 10.052 C 21.41 9.928 20.932 10.165 20.55 10.463 C 20.217 10.722 19.811 10.869 19.39 10.885 C 18.969 10.9 18.553 10.783 18.202 10.549 C 17.851 10.315 17.582 9.977 17.433 9.582 C 17.284 9.187 17.263 8.755 17.372 8.348 C 17.481 7.94 17.715 7.576 18.041 7.309 C 18.367 7.041 18.769 6.883 19.189 6.857 C 19.61 6.83 20.028 6.936 20.385 7.161 C 20.742 7.385 21.02 7.716 21.18 8.107 C 21.364 8.555 21.658 9.001 22.125 9.122 C 22.593 9.244 23.071 9.011 23.453 8.713 C 23.786 8.455 24.192 8.308 24.612 8.293 C 25.033 8.278 25.448 8.396 25.798 8.63 C 26.149 8.863 26.417 9.202 26.566 9.596 C 26.714 9.991 26.736 10.422 26.626 10.83 C 26.517 11.237 26.283 11.6 25.957 11.867 C 25.631 12.134 25.23 12.292 24.81 12.318 C 24.39 12.345 23.972 12.239 23.615 12.014 C 23.259 11.79 22.981 11.46 22.822 11.069 C 22.639 10.624 22.344 10.179 21.878 10.052 Z" fill="rgb(255, 255, 255)"></path><path d="M 13.924 17.456 C 15.829 17.456 17.374 15.909 17.374 13.999 C 17.374 12.09 15.829 10.542 13.924 10.542 C 12.018 10.542 10.473 12.09 10.473 13.999 C 10.473 15.909 12.018 17.456 13.924 17.456 Z" fill="rgb(255, 255, 255)"></path></svg>