<svg width="142" height="34" viewBox="0 0 142 34" fill="none" xmlns="http://www.w3.org/2000/svg">
<path d="M120.936 10.4235C120.936 6.58898 122.302 2.95318 124.836 0L125.585 0.683664C123.337 3.41624 122.038 6.70032 122.038 10.4246C122.038 14.1488 123.337 17.4329 125.585 20.1655L124.836 20.8492C122.301 17.896 120.936 14.2602 120.936 10.4256V10.4235Z" fill="#FCFBFA"/>
<path d="M142 10.4246C142 14.2591 140.634 17.8949 138.1 20.8481L137.351 20.1655C139.598 17.4329 140.899 14.1488 140.899 10.4246C140.899 6.70032 139.598 3.41624 137.351 0.683664L138.1 0C140.634 2.95318 142 6.58898 142 10.4235V10.4246Z" fill="#FCFBFA"/>
<path d="M45.8988 0H40.4462V5.45266H45.8988V0Z" fill="#DFD8D0"/>
<path d="M121.325 27.1811C121.161 27.1811 121.079 27.2633 121.039 27.5901C120.261 30.6598 119.155 31.4787 118.501 31.4787C117.764 31.4787 117.15 30.9876 117.15 29.2269C117.15 25.2154 117.355 21.1624 117.355 17.1509C117.355 12.5661 114.694 10.4787 110.723 10.4787C106.752 10.4787 103.56 13.0573 103.56 16.332C103.56 17.846 104.419 19.1155 105.893 19.1155C107.203 19.1155 107.94 18.2966 107.94 17.1509C107.94 15.8408 107.326 15.1041 107.326 13.8762C107.326 12.2383 108.227 11.3788 109.904 11.3788C111.828 11.3788 113.22 12.6473 113.22 17.1093V17.7638C113.22 18.8283 112.523 19.8512 111.541 20.3018C107.079 22.2664 102.617 24.6816 102.617 28.7753C102.617 29.6556 102.789 30.4558 103.108 31.1405C103.313 31.5786 102.784 31.9844 102.419 31.666C101.726 31.0583 101.329 30.0198 101.329 28.2841V16.4537C101.329 12.6056 99.8138 10.5182 96.8262 10.5182C95.4756 10.5182 93.8377 11.3777 91.9553 13.4246C91.2591 14.2019 90.4818 14.1207 90.0718 13.1384C89.1717 11.46 88.025 10.5182 86.3465 10.5182C84.9136 10.5182 83.1946 11.5005 81.4339 13.4652C80.7378 14.2425 80.3288 14.0791 80.4516 13.0562C80.4922 12.4423 80.5744 11.8283 80.5744 11.255C80.5744 10.846 80.411 10.4776 79.8782 10.4776C78.8886 10.4776 76.2227 11.5411 73.9615 12.1686C73.5869 12.2726 73.2175 11.9886 73.2185 11.5994C73.2185 11.46 73.2195 11.3184 73.2216 11.1738C73.2216 10.8054 73.0166 10.6826 72.7711 10.6826C72.3205 10.6826 71.7887 10.9282 70.8876 10.9282C69.6181 10.9282 68.6774 10.5193 66.9989 10.5193C63.9292 10.5193 61.3912 12.7295 61.3912 16.127C61.3912 18.46 62.5379 20.0978 66.0582 22.8814C69.8241 25.9511 71.462 27.6296 71.462 29.922C71.462 31.5183 70.5203 32.7461 68.4734 32.7461C63.5608 32.7461 62.3746 29.0614 61.0645 24.4777C60.9823 24.1499 60.9011 24.0271 60.6961 24.0271C60.4911 24.0271 60.3683 24.1905 60.4505 24.5182C60.566 25.4069 61.3382 28.7389 61.4245 32.2768C61.4328 32.6077 61.1654 32.8793 60.8345 32.8793H60.7284C60.2185 32.8793 59.7461 32.6161 59.4766 32.1842L46.6805 11.6316C46.2497 10.9397 45.4921 10.5182 44.6763 10.5182H36.3954C34.5608 10.5276 33.0114 11.9168 31.746 14.2435C31.2954 15.1852 30.9687 15.103 31.0499 14.0801C31.1321 12.8523 31.2549 11.9105 31.2549 11.256C31.2549 10.9282 31.1321 10.5193 30.6003 10.5193C29.5899 10.5193 26.8334 11.6275 24.5431 12.2487C24.1269 12.3611 23.7366 12.0011 23.8116 11.5755C23.8646 11.2747 23.9063 10.9636 23.9364 10.6421C23.9718 10.2602 23.9895 9.86474 23.9895 9.45475C23.9895 4.95734 21.4151 2.57024 19.002 1.31946C17.2913 0.434964 15.3839 0 13.4588 0H-0.00012207V0.682623C-0.00012207 0.682623 0.44837 0.696151 0.531616 0.696151C3.23297 0.696151 4.78865 1.35068 4.74806 4.87201V28.2872C4.74806 31.8075 3.23297 32.4621 0.531616 32.4621C0.16325 32.4621 -0.00012207 32.5443 -0.00012207 32.7898C-0.00012207 32.8231 0.00299968 32.8533 0.00716202 32.8825H-0.00012207V33.5651H14.6544V32.8825H14.6471C14.6523 32.8544 14.6544 32.8242 14.6544 32.7898C14.6544 32.5443 14.4911 32.4621 14.0405 32.4621C11.0935 32.4621 9.37346 31.8075 9.37346 28.2872V20.0188C9.37346 18.9542 9.94682 18.3403 10.9697 18.5047C11.9926 18.6681 13.2621 18.8731 14.3672 18.8731C18.258 18.8731 21.7928 17.1696 23.2642 13.5109C23.3412 13.3195 23.515 13.1832 23.719 13.1519C24.2694 13.0677 25.0249 12.9792 25.7273 12.9792C26.4297 12.9792 27.0374 13.1842 27.0374 15.6806V28.2883C26.9968 31.8086 25.7273 32.4631 23.1893 32.4631C22.8209 32.4631 22.6576 32.5453 22.6576 32.7909C22.6576 32.8242 22.6607 32.8544 22.6648 32.8835H22.6576V33.5661H37.5161V32.8835H37.5057C37.514 32.8554 37.5181 32.8242 37.5181 32.7909C37.5181 32.5453 37.3131 32.4631 36.6992 32.4631C33.3017 32.4631 30.9687 31.8086 30.9687 28.2883V18.2185C30.9687 15.7628 32.4016 13.5932 33.6701 13.5932C35.3079 13.5932 34.8157 15.4766 36.7398 15.4766C37.8043 15.4766 38.8688 14.6171 38.8688 12.8158C38.8688 12.5078 38.8272 12.2289 38.7481 11.9802C38.6264 11.5973 38.9052 11.205 39.3079 11.205H40.1311C40.6409 11.205 41.1134 11.4683 41.3829 11.9001L54.18 32.4537C54.6108 33.1457 55.3683 33.5661 56.1831 33.5661C56.1831 33.5661 106.886 33.6098 107.162 33.6098C109.66 33.6098 110.723 32.3414 112.361 28.7794C112.689 28.1249 113.343 28.1655 113.18 28.9022C112.443 31.972 114.408 33.6098 116.578 33.6098C119.361 33.6098 120.712 31.6858 121.531 27.6338C121.613 27.306 121.531 27.1832 121.326 27.1832L121.325 27.1811ZM13.5899 18.2976C11.4609 18.2976 9.37346 17.2747 9.37346 14.9813V3.43809C9.37346 1.22789 10.438 0.859523 12.4026 0.859523C16.5785 0.859523 19.4026 4.37982 19.4026 9.45579C19.4026 14.0406 17.233 18.2976 13.5899 18.2976ZM76.2757 28.2862C76.2757 31.4298 74.6899 32.2966 73.4297 32.4974C72.9011 32.5817 72.5505 31.9699 72.8803 31.5484C73.6295 30.589 74.0811 29.2883 74.0811 27.6306C74.0811 24.5193 72.4027 22.718 68.719 19.7711C65.8189 17.5338 64.1342 16.1353 64.1758 14.2165C64.2122 12.5234 65.7305 11.2394 67.4152 11.41C70.1998 11.692 72.1779 13.9282 73.0166 18.5838C73.0988 18.9522 73.18 19.0749 73.3444 19.0749C73.5088 19.0749 73.6306 18.9522 73.6306 18.5432C73.5983 17.59 73.3455 16.1426 73.2528 13.6285C73.2414 13.3205 73.4682 13.0552 73.7742 13.0187C74.1696 12.9719 74.5973 12.9355 75.0073 12.9355C75.7034 12.9355 76.3174 13.1405 76.3174 15.6369L76.2768 28.2862H76.2757ZM86.8783 27.795C86.8783 31.0292 86.3049 32.5026 83.7669 32.5026H83.6035C80.8606 32.5026 80.2466 30.947 80.2466 27.795V16.743C80.2466 13.7544 83.3163 13.0999 84.2581 13.0999C86.0999 13.0999 86.8783 14.1644 86.8783 16.4568V27.7961V27.795ZM97.358 27.795C97.358 31.0292 96.7846 32.5026 94.2466 32.5026H94.206C91.4631 32.5026 90.8491 30.947 90.8491 27.795V16.2924C90.8491 13.8366 93.5505 13.0999 94.7378 13.0999C96.5796 13.0999 97.358 14.1644 97.358 16.4568V27.7961V27.795ZM113.22 24.1925C113.22 27.795 111.173 30.4558 109.003 30.4558C107.325 30.4558 106.547 29.1457 106.547 27.3039C106.547 24.6837 108.308 22.4735 111.583 20.795C112.524 20.3861 113.221 20.795 113.221 21.8596V24.1925H113.22Z" fill="#FCFBFA"/>
<path d="M136.678 15.3398C136.678 15.2264 136.64 15.1889 136.489 15.1889C135.697 15.1889 134.925 14.9444 134.191 13.4927L132.834 10.8174C132.608 10.3845 132.608 9.78098 132.834 9.34809L133.87 7.33248C134.624 5.90064 135.378 5.6561 136.338 5.6561C136.489 5.6561 136.545 5.61864 136.545 5.50522C136.545 5.48648 136.544 5.47088 136.541 5.45631V5.26172H126.596V5.50626C126.596 5.61968 126.653 5.65714 126.785 5.65714C127.595 5.65714 128.368 5.90168 129.102 7.35329L130.346 9.7841C130.553 10.218 130.571 10.8393 130.346 11.2721L129.253 13.4959C128.537 14.9277 127.821 15.192 126.898 15.192C126.747 15.192 126.691 15.2295 126.691 15.3429C126.691 15.3439 126.691 15.346 126.691 15.3471V15.5916H136.677V15.3471C136.677 15.3471 136.677 15.3439 136.677 15.3429L136.678 15.3398ZM133.456 7.53956L132.703 8.9714C132.477 9.40429 132.156 9.40429 131.949 8.9714L131.196 7.53956C130.517 6.20137 130.517 5.63633 132.251 5.63633C134.154 5.63633 134.135 6.23883 133.457 7.53956H133.456ZM129.669 13.2857L130.48 11.6467C130.687 11.2139 131.007 11.1941 131.215 11.628L132.081 13.3054C132.779 14.6436 132.779 15.2087 131.026 15.2087H130.932C129.028 15.2087 129.028 14.5864 129.669 13.2867V13.2857Z" fill="#FCFBFA"/>
</svg>
