<svg width="40" height="28" viewBox="0 0 40 28" fill="none" xmlns="http://www.w3.org/2000/svg">
<g clip-path="url(#clip0_2058_184)">
<path d="M21.2 0H18.8C18.358 0 18 0.36 18 0.806V27.194C18 27.638 18.358 28 18.8 28H21.2C21.642 28 22 27.64 22 27.194V0.806C22 0.362 21.642 0 21.2 0Z" fill="black"/>
<path d="M3.02 11.9859H0.98C0.438 11.9859 0 12.4279 0 12.9719V15.0259C0 15.5719 0.438 16.0119 0.98 16.0119H3.02C3.562 16.0119 4 15.5699 4 15.0259V12.9719C4 12.4259 3.562 11.9859 3.02 11.9859Z" fill="black"/>
<path d="M9.2 7.99H6.8C6.358 7.99 6 8.35 6 8.796V15.208C6 15.652 6.358 16.014 6.8 16.014H9.2C9.642 16.014 10 15.654 10 15.208V8.796C10 8.352 9.642 7.99 9.2 7.99Z" fill="black"/>
<path d="M15.2 3.99606H12.8C12.358 3.99606 12 4.35606 12 4.80206V15.2101C12 15.6541 12.358 16.0161 12.8 16.0161H15.2C15.642 16.0161 16 15.6561 16 15.2101V4.80006C16 4.35606 15.642 3.99406 15.2 3.99406V3.99606Z" fill="black"/>
<path d="M39.02 11.9859H36.98C36.438 11.9859 36 12.4279 36 12.9719V15.0259C36 15.5719 36.438 16.0119 36.98 16.0119H39.02C39.562 16.0119 40 15.5699 40 15.0259V12.9719C40 12.4259 39.562 11.9859 39.02 11.9859Z" fill="black"/>
<path d="M33.2 11.9859H30.8C30.358 11.9859 30 12.3459 30 12.7919V19.2039C30 19.6479 30.358 20.0099 30.8 20.0099H33.2C33.642 20.0099 34 19.6499 34 19.2039V12.7919C34 12.3479 33.642 11.9859 33.2 11.9859Z" fill="black"/>
<path d="M27.2 11.9859H24.8C24.358 11.9859 24 12.3459 24 12.7919V23.1999C24 23.6439 24.358 24.0059 24.8 24.0059H27.2C27.642 24.0059 28 23.6459 28 23.1999V12.7919C28 12.3479 27.642 11.9859 27.2 11.9859Z" fill="black"/>
</g>
<defs>
<clipPath id="clip0_2058_184">
<rect width="40" height="28" fill="white"/>
</clipPath>
</defs>
</svg>
